<?xml version="1.0" encoding="utf-8" ?>	<!-- Generator: Assembly 1.8 - http://assemblyapp.co -->	<svg version="1.1" xmlns="http://www.w3.org/2000/svg" xmlns:xlink="http://www.w3.org/1999/xlink" width="2048.00" height="2048.00" viewBox="0 0 2048.0 2048.0">		<rect x="0" y="0" width="2048.00" height="2048.00" fill="#ffffff" />		<g id="document" transform="matrix(1,0,0,1,1024.0,1024.0)">			<path d="M-1543.71,-1024.7 L-1543.71,1022.09 L1530.44,1022.09 L1530.44,-1024.7 L-1543.71,-1024.7 Z " fill="#86cdd1" fill-opacity="1.00" />			<path d="M638.765,683.823 C597.838,683.823 564.708,673.915 564.708,632.99 C564.708,592.064 597.838,581.424 638.765,581.424 C679.69,581.424 712.82,592.064 712.82,632.99 C712.82,673.915 679.69,683.823 638.765,683.823 Z " fill="#fcfffd" fill-opacity="1.00" />			<path d="M-480.334,699.759 L-480.334,605.402 L461.054,605.402 L461.054,699.759 L-480.334,699.759 Z " fill="#fcfffd" fill-opacity="1.00" stroke-width="75.30" stroke="#fcfffd" stroke-linecap="square" stroke-linejoin="miter" />			<path d="M-644.058,-486.685 L629.811,-486.685 L629.811,407.522 L-644.058,407.522 L-644.058,-486.685 Z " fill="#153557" fill-opacity="1.00" stroke-width="129.55" stroke="#153557" stroke-linecap="square" stroke-linejoin="miter" />			<path d="M-644.058,336.886 L-644.058,407.522 L629.811,407.522 L629.811,336.886 L-644.058,336.886 Z " fill="#fcfffd" fill-opacity="1.00" stroke-width="129.55" stroke="#fcfffd" stroke-linecap="square" stroke-linejoin="miter" />			<path d="M-685.366,269.805 L671.184,269.805 L671.184,372.204 L-685.366,372.204 L-685.366,269.805 Z " fill="#fcfffd" fill-opacity="1.00" />			<path d="M-10.0552,394.059 C-29.5731,394.059 -45.3733,378.258 -45.3733,358.741 C-45.3733,339.222 -29.5731,323.423 -10.0552,323.423 C9.46278,323.423 25.2629,339.222 25.2629,358.741 C25.2629,378.258 9.46278,394.059 -10.0552,394.059 Z " fill="#86cdd1" fill-opacity="1.00" />			<path d="M-635.01,-478.44 L615.73,-478.44 L615.73,213.483 L-635.01,213.483 L-635.01,-478.44 Z " fill="#2090a5" fill-opacity="1.00" />			<path d="M-136.305,448.775 L116.194,448.775 L116.194,551.175 L-136.305,551.175 L-136.305,448.775 Z " fill="#e0e1e3" fill-opacity="1.00" />			<path d="M-1102.21,699.759 L-1102.21,629.122 L1082.1,629.122 L1082.1,699.757 L-1102.21,699.759 Z " fill="#e0e1e3" fill-opacity="1.00" />			<path d="M180.872,802.158 L833.309,802.158 L932.427,1027.42 L1004.61,1027.42 L899.691,700.292 L899.691,699.759 L899.52,699.759 L181.403,699.759 L-919.631,699.759 L-919.802,699.759 L-919.802,700.292 L-1024.71,1027.42 L-952.537,1027.42 L-853.419,802.158 L180.872,802.158 Z " fill="#153557" fill-opacity="1.00" />			<path d="M292.367,1022.09 L179.807,607.183 L-84.1979,607.183 L-194.054,607.183 L-306.616,1022.09 L292.367,1022.09 Z " fill="#dc5253" fill-opacity="1.00" />			<path d="M-409.18,1022.09 L394.931,1022.09 C394.913,1013.27 393.745,1004.27 391.297,995.246 L278.737,580.344 C266.621,535.682 226.084,504.676 179.807,504.676 L-84.1979,504.676 L-194.054,504.676 C-240.331,504.676 -280.869,535.682 -292.985,580.344 L-405.546,995.246 C-407.994,1004.27 -409.162,1013.27 -409.18,1022.09 Z " fill="#dc5253" fill-opacity="1.00" />			<path d="M-10.0552,1022.09 L-10.0552,607.183 L-86.7139,607.183 L-196.571,607.183 L-309.131,1022.09 L-10.0552,1022.09 Z " fill="#ee6366" fill-opacity="1.00" />			<path d="M92.4513,1021.62 L92.4513,607.183 C92.4513,550.57 46.5576,504.676 -10.0552,504.676 L-86.7139,504.676 L-196.571,504.676 C-242.848,504.676 -283.385,535.682 -295.501,580.344 L-408.061,995.246 C-410.467,1004.11 -411.636,1012.96 -411.693,1021.62 L92.4513,1021.62 Z " fill="#ee6366" fill-opacity="1.00" />			<path d="M-1330.45,888.217 C-1458.9,735.487 -1440.95,485.853 -1291.68,356.882 " fill="none" stroke-width="32.18" stroke="#198367" stroke-linecap="square" stroke-linejoin="miter" />			<path d="M-1424.58,780.995 C-1456.27,681.651 -1397.94,564.605 -1300.17,531.982 " fill="none" stroke-width="21.05" stroke="#198367" stroke-linecap="square" stroke-linejoin="miter" />			<path d="M-1414.33,714.521 C-1484.28,576.876 -1505.63,415.386 -1458.98,266.927 " fill="none" stroke-width="32.18" stroke="#198367" stroke-linecap="square" stroke-linejoin="miter" />			<path d="M-1544.76,629.142 L-1544.76,1023.92 L-1248.71,1023.92 C-1213.63,915.982 -1194.61,788.705 -1194.61,655.601 C-1194.61,640.977 -1206.46,629.122 -1221.09,629.122 L-1543.71,629.122 C-1544.05,629.122 -1544.41,629.128 -1544.76,629.142 Z M-1221.34,682.079 C-1221.34,681.995 -1221.34,681.913 -1221.34,681.829 L-1221.09,682.079 L-1221.34,682.079 Z " fill="#153557" fill-opacity="1.00" />			<path d="M991.762,616.28 L806.296,616.28 L806.296,253.934 L991.762,253.934 L991.762,616.28 Z " fill="#153557" fill-opacity="1.00" stroke-width="40.32" stroke="#153557" stroke-linecap="square" stroke-linejoin="miter" />			<path d="M811.104,277.251 L986.954,277.251 L986.954,565.323 L811.104,565.323 L811.104,277.251 Z " fill="#2090a5" fill-opacity="1.00" />			<path d="M899.029,611.827 C890.925,611.827 884.366,605.267 884.366,597.165 C884.366,589.061 890.925,582.5 899.029,582.5 C907.133,582.5 913.693,589.061 913.693,597.165 C913.693,605.267 907.133,611.827 899.029,611.827 Z " fill="#2090a5" fill-opacity="1.00" />			<path d="M871.026,259.554 L927.031,259.554 " fill="none" stroke-width="7.50" stroke="#2090a5" stroke-linecap="square" stroke-linejoin="miter" />			<path d="M904.861,291.331 L826.335,473.026 L826.335,551.242 L893.027,551.242 L971.553,370.57 L971.553,291.331 L904.861,291.331 Z " fill="#86cdd1" fill-opacity="0.37" />			<path d="M-968.739,402.543 L-776.029,402.543 L-776.029,629.122 L-968.739,629.122 L-968.739,402.543 Z " fill="#fcfffd" fill-opacity="1.00" />			<path d="M-981.393,574.796 C-1009.69,574.796 -1020.24,551.89 -1020.24,523.596 C-1020.24,495.3 -1009.69,472.396 -981.393,472.396 C-953.097,472.396 -930.193,495.3 -930.193,523.596 C-930.193,551.89 -953.097,574.796 -981.393,574.796 Z " fill="none" stroke-width="52.81" stroke="#fcfffd" stroke-linecap="square" stroke-linejoin="miter" />			<g>				<path d="M-951.535,269.704 C-1104.87,423.038 -1230.6,430.769 -1303.38,357.989 C-1376.16,285.208 -1368.43,159.476 -1215.1,6.14204 C-1061.76,-147.192 -932.891,-158.063 -860.111,-85.2822 C-787.33,-12.5015 -798.2,116.37 -951.535,269.704 Z " fill="#198367" fill-opacity="1.00" />				<path d="M-1304.58,356.772 C-1304.18,357.179 -1303.78,357.585 -1303.38,357.989 C-1230.6,430.769 -1104.87,423.038 -951.535,269.704 C-798.2,116.37 -787.33,-12.5016 -860.111,-85.2822 C-860.514,-85.686 -860.92,-86.0872 -861.327,-86.4857 L-1304.58,356.772 Z " fill="#3a995c" fill-opacity="1.00" />			</g>			<g>				<path d="M-1222.67,577.411 C-1287.55,599.324 -1324.22,583.894 -1334.62,553.097 C-1345.03,522.299 -1325.22,487.796 -1260.34,465.881 C-1195.45,443.967 -1157.45,458.948 -1147.05,489.746 C-1136.65,520.543 -1157.78,555.497 -1222.67,577.411 Z " fill="#198367" fill-opacity="1.00" />				<path d="M-1334.8,546.826 C-1334.74,546.998 -1334.68,547.169 -1334.62,547.34 C-1324.22,578.137 -1287.55,593.567 -1222.67,571.653 C-1157.78,549.739 -1136.65,514.786 -1147.05,483.989 C-1147.11,483.818 -1147.17,483.648 -1147.23,483.477 L-1334.8,546.826 Z " fill="#3a995c" fill-opacity="1.00" />			</g>			<path d="M-1187.02,15.5588 C-1248.57,258.197 -1368.72,340.11 -1483.89,310.895 C-1513.24,303.449 -1539.45,289.503 -1561.16,268.834 C-1561.14,14.2004 -1561.13,-167.859 -1561.11,-216.083 C-1494.82,-362.664 -1398.38,-413.986 -1305.96,-390.541 C-1190.79,-361.326 -1125.47,-227.079 -1187.02,15.5588 Z " fill="#198367" fill-opacity="1.00" />			<path d="M-1485.8,310.4 C-1485.17,310.568 -1484.53,310.733 -1483.89,310.895 C-1368.72,340.11 -1248.57,258.197 -1187.02,15.5588 C-1125.47,-227.079 -1190.79,-361.326 -1305.96,-390.541 C-1306.6,-390.703 -1307.24,-390.862 -1307.88,-391.016 L-1485.8,310.4 Z " fill="#3a995c" fill-opacity="1.00" />			<path d="M830.766,-499.329 L1561.16,-499.329 L1561.16,103.033 L830.766,103.033 L830.766,-499.329 Z " fill="#ffffff" fill-opacity="1.00" />			<path d="M868.08,73.9047 L793.454,73.9047 L793.454,-528.456 L868.08,-528.456 L868.08,73.9047 Z " fill="#153557" fill-opacity="1.00" />			<path d="M793.454,-453.83 L793.454,-528.456 L1529.67,-528.456 L1529.67,-453.83 L793.454,-453.83 Z " fill="#153557" fill-opacity="1.00" />			<path d="M793.454,131.792 L793.454,57.1651 L1528.8,57.1651 L1528.8,131.792 L793.454,131.792 Z " fill="#153557" fill-opacity="1.00" />			<path d="M-814.589,510.026 C-814.589,498.075 -824.288,488.278 -836.338,488.278 C-846.527,488.278 -855.148,495.332 -857.499,505.03 C-859.753,495.43 -868.373,488.278 -878.661,488.278 C-890.613,488.278 -900.411,497.976 -900.411,510.026 C-900.411,516.002 -898.744,520.411 -894.826,524.33 C-894.434,524.722 -893.356,525.8 -892.768,526.387 L-857.402,558.914 L-822.034,526.29 C-821.544,525.898 -821.447,525.702 -821.055,525.408 L-820.957,525.311 C-817.136,521.391 -814.589,516.002 -814.589,510.026 Z " fill="#ee6366" fill-opacity="1.00" stroke-width="8.20" stroke="#ee6366" stroke-linecap="square" stroke-linejoin="miter" />			<path d="M1128.25,-15.1282 C1027.11,-15.1282 945.233,-97.0052 945.233,-198.147 C945.233,-299.289 1027.11,-381.166 1128.25,-381.166 C1229.39,-381.166 1311.27,-299.289 1311.27,-198.147 C1311.27,-97.0052 1229.39,-15.1282 1128.25,-15.1282 Z " fill="#f8b818" fill-opacity="1.00" />			<path d="M1378.98,-15.1282 C1277.84,-15.1282 1195.96,-97.0052 1195.96,-198.147 C1195.96,-299.289 1277.84,-381.166 1378.98,-381.166 C1440.72,-381.166 1495.27,-350.665 1528.41,-303.897 C1528.82,-168.11 1529.04,-128.086 1529.04,-93.2965 C1495.96,-46.0213 1441.11,-15.1282 1378.98,-15.1282 Z " fill="#2090a5" fill-opacity="0.88" />			<path d="M1253.62,-331.534 C1218.12,-298.16 1195.96,-250.76 1195.96,-198.147 C1195.96,-145.534 1218.12,-98.134 1253.62,-64.7605 C1289.12,-98.134 1311.27,-145.534 1311.27,-198.147 C1311.27,-250.76 1289.12,-298.16 1253.62,-331.534 Z " fill="#198367" fill-opacity="1.00" />			<path d="M-7.15964,1022.09 L162.763,1022.09 L162.763,504.639 L-7.15964,504.639 L-7.15964,1022.09 Z " fill="#dc5253" fill-opacity="1.00" />			<path d="M-1542.28,824.062 L-1542.1,867.917 L-1455.29,798.264 L-1476.74,798.285 L-1383.97,872.428 L-1373.24,881.008 L-1362.52,872.407 L-1270.12,798.264 L-1291.6,798.264 L-1199.2,872.407 L-1185.82,883.146 L-1164.34,856.378 L-1177.72,845.638 L-1270.12,771.496 L-1280.86,762.878 L-1291.6,771.496 L-1384,845.638 L-1362.55,845.617 L-1455.32,771.475 L-1466.05,762.896 L-1476.77,771.496 L-1542.28,824.062 Z " fill="#86cdd1" fill-opacity="1.00" />			<g>				<path d="M166.513,-260.229 L294.464,-132.02 L166.513,-4.06826 " fill="none" stroke-width="35.19" stroke="#86cdd1" stroke-linecap="square" stroke-linejoin="miter" />				<path d="M-186.623,-4.72781 L-314.575,-132.937 L-186.623,-260.889 " fill="none" stroke-width="35.19" stroke="#86cdd1" stroke-linecap="square" stroke-linejoin="miter" />			</g>		</g>	</svg>