<?xml version="1.0" encoding="utf-8" ?>	<!-- Generator: Assembly 2.2 - http://assemblyapp.co -->	<svg version="1.1" xmlns="http://www.w3.org/2000/svg" xmlns:xlink="http://www.w3.org/1999/xlink" width="2048.00" height="2048.00" viewBox="0 0 2048.0 2048.0">		<g id="document" transform="matrix(1,0,0,1,1024.0,1024.0)">			<path d="M843.344,290.298 C1007.45,-179.251 759.847,-692.933 290.298,-857.043 C-179.251,-1021.15 -692.933,-773.546 -857.043,-303.997 C-1021.15,165.552 -773.546,679.234 -303.997,843.344 C165.552,1007.45 679.234,759.847 843.344,290.298 Z " fill="#86cdd1" fill-opacity="1.00" />			<path d="M-311.671,235.795 L-538.403,9.06414 L-311.671,-217.667 L-381.709,-287.705 L-678.477,9.06415 L-381.709,305.833 L-311.671,235.795 Z " fill="#ffffff" fill-opacity="1.00" />			<path d="M311.671,-217.667 L538.403,9.06412 L311.671,235.795 L381.709,305.833 L678.477,9.06412 L381.709,-287.705 L311.671,-217.667 Z " fill="#ffffff" fill-opacity="1.00" />			<path d="M-166.505,322.086 L-69.6519,322.086 L166.505,-303.957 L68.8277,-303.957 L-166.505,322.086 Z " fill="#ffffff" fill-opacity="1.00" />		</g>	</svg>