<?xml version="1.0" encoding="utf-8" ?>	<!-- Generator: Assembly 1.8 - http://assemblyapp.co -->	<svg version="1.1" xmlns="http://www.w3.org/2000/svg" xmlns:xlink="http://www.w3.org/1999/xlink" width="2048.00" height="2048.00" viewBox="0 0 2048.0 2048.0">		<rect x="0" y="0" width="2048.00" height="2048.00" fill="#ffffff" />		<g id="document" transform="matrix(1,0,0,1,1024.0,1024.0)">			<path d="M-1070.9,-1023.52 L-1070.9,1026.92 L2008.75,1026.92 L2008.75,-1023.52 L-1070.9,-1023.52 Z " fill="#86cdd1" fill-opacity="1.00" />			<path d="M1107.87,687.576 C1066.87,687.576 1033.68,677.651 1033.68,636.653 C1033.68,595.653 1066.87,584.994 1107.87,584.994 C1148.87,584.994 1182.06,595.653 1182.06,636.653 C1182.06,677.651 1148.87,687.576 1107.87,687.576 Z " fill="#fcfffd" fill-opacity="1.00" />			<path d="M-13.2335,703.541 L-13.2335,609.015 L929.839,609.015 L929.839,703.541 L-13.2335,703.541 Z " fill="#fcfffd" fill-opacity="1.00" stroke-width="75.44" stroke="#fcfffd" stroke-linecap="square" stroke-linejoin="miter" />			<path d="M-177.251,-485.027 L1098.9,-485.027 L1098.9,410.781 L-177.251,410.781 L-177.251,-485.027 Z " fill="#153557" fill-opacity="1.00" stroke-width="129.78" stroke="#153557" stroke-linecap="square" stroke-linejoin="miter" />			<path d="M-177.251,340.018 L-177.251,410.781 L1098.9,410.781 L1098.9,340.018 L-177.251,340.018 Z " fill="#fcfffd" fill-opacity="1.00" stroke-width="129.78" stroke="#fcfffd" stroke-linecap="square" stroke-linejoin="miter" />			<path d="M-218.632,272.818 L1140.35,272.818 L1140.35,375.4 L-218.632,375.4 L-218.632,272.818 Z " fill="#fcfffd" fill-opacity="1.00" />			<path d="M457.887,397.294 C438.334,397.294 422.506,381.465 422.506,361.913 C422.506,342.359 438.334,326.531 457.887,326.531 C477.44,326.531 493.269,342.359 493.269,361.913 C493.269,381.465 477.44,397.294 457.887,397.294 Z " fill="#86cdd1" fill-opacity="1.00" />			<path d="M-168.186,-476.767 L1084.79,-476.767 L1084.79,216.395 L-168.186,216.395 L-168.186,-476.767 Z " fill="#2090a5" fill-opacity="1.00" />			<path d="M331.412,452.107 L584.363,452.107 L584.363,554.691 L331.412,554.691 L331.412,452.107 Z " fill="#e0e1e3" fill-opacity="1.00" />			<path d="M-636.227,703.541 L-636.227,632.778 L1552,632.778 L1552,703.539 L-636.227,703.541 Z " fill="#e0e1e3" fill-opacity="1.00" />			<path d="M649.156,806.123 L1302.76,806.123 L1402.06,1031.79 L1474.36,1031.79 L1369.26,704.075 L1369.26,703.541 L1369.09,703.541 L649.688,703.541 L-453.316,703.541 L-453.488,703.541 L-453.488,704.075 L-558.588,1031.79 L-486.282,1031.79 L-386.986,806.123 L649.156,806.123 Z " fill="#153557" fill-opacity="1.00" />			<path d="M457.887,1026.44 L457.887,610.8 L381.091,610.8 L271.038,610.8 L158.276,1026.44 L457.887,1026.44 Z " fill="#ee6366" fill-opacity="1.00" />			<path d="M247.606,-448.983 L-119.065,187.04 L374.032,187.04 L740.703,-448.983 L247.606,-448.983 Z M832.799,-451.315 L466.128,184.708 L657.986,184.708 L1024.66,-451.315 L832.799,-451.315 Z " fill="#86cdd1" fill-opacity="0.37" />			<path d="M-864.871,892.336 C-993.55,739.333 -975.573,489.252 -826.034,360.05 " fill="none" stroke-width="32.24" stroke="#198367" stroke-linecap="square" stroke-linejoin="miter" />			<path d="M-959.17,784.922 C-990.912,685.401 -932.483,568.145 -834.531,535.464 " fill="none" stroke-width="21.09" stroke="#198367" stroke-linecap="square" stroke-linejoin="miter" />			<path d="M-948.899,718.329 C-1018.97,580.438 -1040.37,418.659 -993.633,269.934 " fill="none" stroke-width="32.24" stroke="#198367" stroke-linecap="square" stroke-linejoin="miter" />			<path d="M-1079.56,632.798 L-1079.56,1028.28 L-782.988,1028.28 C-747.837,920.151 -728.784,792.646 -728.784,659.304 C-728.784,644.654 -740.66,632.778 -755.31,632.778 L-1078.51,632.778 C-1078.85,632.778 -1079.22,632.784 -1079.56,632.798 Z M-755.568,685.83 C-755.566,685.746 -755.564,685.663 -755.563,685.579 L-755.31,685.83 L-755.568,685.83 Z " fill="#153557" fill-opacity="1.00" />			<path d="M1461.5,619.912 L1275.7,619.912 L1275.7,256.918 L1461.5,256.918 L1461.5,619.912 Z " fill="#153557" fill-opacity="1.00" stroke-width="40.39" stroke="#153557" stroke-linecap="square" stroke-linejoin="miter" />			<path d="M1280.52,280.277 L1456.68,280.277 L1456.68,568.864 L1280.52,568.864 L1280.52,280.277 Z " fill="#2090a5" fill-opacity="1.00" />			<path d="M1368.6,615.452 C1360.48,615.452 1353.91,608.88 1353.91,600.763 C1353.91,592.645 1360.48,586.073 1368.6,586.073 C1376.72,586.073 1383.29,592.645 1383.29,600.763 C1383.29,608.88 1376.72,615.452 1368.6,615.452 Z " fill="#2090a5" fill-opacity="1.00" />			<path d="M1340.55,262.548 L1396.65,262.548 " fill="none" stroke-width="7.51" stroke="#2090a5" stroke-linecap="square" stroke-linejoin="miter" />			<path d="M1374.44,294.383 L1295.77,476.403 L1295.77,554.759 L1362.59,554.759 L1441.25,373.763 L1441.25,294.383 L1374.44,294.383 Z " fill="#86cdd1" fill-opacity="0.37" />			<path d="M-501.324,407.313 L-308.269,407.313 L-308.269,634.298 L-501.324,634.298 L-501.324,407.313 Z " fill="#fcfffd" fill-opacity="1.00" />			<path d="M-514.001,579.874 C-542.345,579.874 -552.917,556.927 -552.917,528.582 C-552.917,500.236 -542.345,477.291 -514.001,477.291 C-485.655,477.291 -462.709,500.236 -462.709,528.582 C-462.709,556.927 -485.655,579.874 -514.001,579.874 Z " fill="none" stroke-width="52.91" stroke="#fcfffd" stroke-linecap="square" stroke-linejoin="miter" />			<g>				<path d="M-485.277,272.717 C-638.885,426.325 -764.841,434.07 -837.752,361.159 C-910.663,288.248 -902.919,162.292 -749.31,8.68277 C-595.702,-144.926 -466.6,-155.816 -393.689,-82.9051 C-320.779,-9.99418 -331.668,119.108 -485.277,272.717 Z " fill="#198367" fill-opacity="1.00" />				<path d="M-838.959,359.941 C-838.559,360.348 -838.157,360.754 -837.752,361.159 C-764.841,434.07 -638.885,426.325 -485.277,272.717 C-331.668,119.108 -320.779,-9.99419 -393.689,-82.9051 C-394.094,-83.3096 -394.5,-83.7115 -394.908,-84.1107 L-838.959,359.941 Z " fill="#3a995c" fill-opacity="1.00" />			</g>			<g>				<path d="M-756.896,580.974 C-821.898,602.927 -858.633,587.469 -869.053,556.617 C-879.473,525.763 -859.632,491.199 -794.632,469.244 C-729.63,447.291 -691.564,462.299 -681.144,493.153 C-670.724,524.005 -691.896,559.021 -756.896,580.974 Z " fill="#198367" fill-opacity="1.00" />				<path d="M-869.224,550.335 C-869.169,550.506 -869.111,550.678 -869.053,550.849 C-858.633,581.701 -821.898,597.159 -756.896,575.206 C-691.896,553.253 -670.724,518.237 -681.144,487.385 C-681.201,487.214 -681.259,487.044 -681.32,486.872 L-869.224,550.335 Z " fill="#3a995c" fill-opacity="1.00" />			</g>			<path d="M-721.186,18.1164 C-782.845,261.188 -903.209,343.248 -1018.58,313.981 C-1047.99,306.522 -1074.24,292.55 -1095.99,271.844 C-1095.98,16.7555 -1095.96,-165.63 -1095.95,-213.94 C-1029.54,-360.783 -932.924,-412.197 -840.336,-388.71 C-724.962,-359.443 -659.528,-224.956 -721.186,18.1164 Z " fill="#198367" fill-opacity="1.00" />			<path d="M-1020.5,313.485 C-1019.86,313.654 -1019.22,313.819 -1018.58,313.981 C-903.209,343.248 -782.845,261.188 -721.186,18.1164 C-659.528,-224.956 -724.962,-359.443 -840.336,-388.71 C-840.977,-388.872 -841.616,-389.032 -842.257,-389.187 L-1020.5,313.485 Z " fill="#3a995c" fill-opacity="1.00" />			<path d="M1300.21,-497.692 L2031.91,-497.692 L2031.91,105.747 L1300.21,105.747 L1300.21,-497.692 Z " fill="#ffffff" fill-opacity="1.00" />			<path d="M1337.59,76.5667 L1262.83,76.5667 L1262.83,-526.872 L1337.59,-526.872 L1337.59,76.5667 Z " fill="#153557" fill-opacity="1.00" />			<path d="M1262.83,-452.112 L1262.83,-526.872 L2000.37,-526.872 L2000.37,-452.112 L1262.83,-452.112 Z " fill="#153557" fill-opacity="1.00" />			<path d="M1262.83,134.558 L1262.83,59.7972 L1999.5,59.7972 L1999.5,134.558 L1262.83,134.558 Z " fill="#153557" fill-opacity="1.00" />			<path d="M-346.898,514.988 C-346.898,503.016 -356.614,493.201 -368.686,493.201 C-378.894,493.201 -387.529,500.268 -389.885,509.984 C-392.143,500.366 -400.779,493.201 -411.085,493.201 C-423.058,493.201 -432.874,502.917 -432.874,514.988 C-432.874,520.975 -431.204,525.392 -427.279,529.318 C-426.887,529.711 -425.807,530.791 -425.217,531.379 L-389.787,563.964 L-354.356,531.281 C-353.866,530.888 -353.768,530.693 -353.376,530.398 L-353.278,530.3 C-349.449,526.374 -346.898,520.975 -346.898,514.988 Z " fill="#ee6366" fill-opacity="1.00" stroke-width="8.22" stroke="#ee6366" stroke-linecap="square" stroke-linejoin="miter" />			<path d="M1598.23,-12.6255 C1496.91,-12.6255 1414.89,-94.649 1414.89,-195.972 C1414.89,-297.295 1496.91,-379.319 1598.23,-379.319 C1699.56,-379.319 1781.58,-297.295 1781.58,-195.972 C1781.58,-94.649 1699.56,-12.6255 1598.23,-12.6255 Z " fill="#f8b818" fill-opacity="1.00" />			<path d="M1849.41,-12.6255 C1748.09,-12.6255 1666.06,-94.649 1666.06,-195.972 C1666.06,-297.295 1748.09,-379.319 1849.41,-379.319 C1911.25,-379.319 1965.91,-348.763 1999.11,-301.912 C1999.51,-165.881 1999.74,-125.786 1999.74,-90.9337 C1966.6,-43.574 1911.65,-12.6255 1849.41,-12.6255 Z " fill="#2090a5" fill-opacity="0.88" />			<path d="M1723.82,-329.597 C1688.26,-296.164 1666.06,-248.679 1666.06,-195.972 C1666.06,-143.265 1688.26,-95.7799 1723.82,-62.3467 C1759.38,-95.7799 1781.58,-143.265 1781.58,-195.972 C1781.58,-248.679 1759.38,-296.164 1723.82,-329.597 Z " fill="#198367" fill-opacity="1.00" />			<path d="M-1077.08,828.067 L-1076.9,872 L-989.935,802.223 L-1011.43,802.244 L-918.489,876.519 L-907.736,885.114 L-896.998,876.498 L-804.436,802.223 L-825.953,802.223 L-733.389,876.498 L-719.981,887.256 L-698.463,860.44 L-711.872,849.682 L-804.436,775.406 L-815.194,766.773 L-825.953,775.406 L-918.517,849.682 L-897.025,849.661 L-989.962,775.385 L-1000.72,766.792 L-1011.45,775.406 L-1077.08,828.067 Z " fill="#86cdd1" fill-opacity="1.00" />			<g>				<path d="M2559.79,210.172 L1736.32,222.101 L1723.07,-604.978 C1723.07,-836.543 1910.53,-1024 2142.09,-1024 C2373.66,-1024 2561.12,-836.543 2561.12,-604.978 L2559.79,212.829 L2559.79,210.172 Z " fill="#5f4430" fill-opacity="1.00" />				<path d="M2139.05,-219.985 C1959.91,-219.985 1814.89,-365.003 1814.89,-544.144 C1814.89,-723.284 1959.91,-868.302 2139.05,-868.302 C2318.19,-868.302 2463.2,-723.284 2463.2,-544.144 C2463.2,-365.003 2318.19,-219.985 2139.05,-219.985 Z " fill="#fbe2d6" fill-opacity="1.00" />				<path d="M2255.08,-890.136 C1818.45,-886.034 1779.2,-806.479 1768.46,-689.657 C1760.25,-600.448 1801.04,-516.013 1871.13,-455.301 C1863.36,-463.87 1858.99,-470.698 1857.19,-474.434 C1825.95,-523.003 1813.59,-574.835 1817.71,-635.146 C1818.87,-640.037 1820.81,-645.571 1822.68,-650.397 C1843.5,-674.9 1879.89,-697.97 1943.18,-710.712 C1947.56,-711.737 1951.87,-712.054 1956.25,-713.08 C2090.36,-735.015 2129.58,-812.089 2141.28,-853.854 C2145.16,-810.656 2168.89,-727.077 2297.51,-681.686 C2365.27,-657.603 2400.19,-625.831 2417.41,-595.687 C2599.39,-394.609 2469.68,-535.186 2477.88,-624.396 C2486.25,-738.581 2364.57,-830.797 2255.08,-890.136 Z " fill="#5f4430" fill-opacity="1.00" />				<path d="M2774.16,591.919 L2483.93,312.981 L2477.14,-29.304 C2475.74,-100.122 2416.89,-156.68 2346.07,-155.276 L2191.32,-152.206 L2188.41,-299.087 L2052.02,-296.382 L2054.93,-149.501 L1901.5,-146.457 C1830.68,-145.052 1774.12,-86.2043 1775.52,-15.3867 L1782.31,326.899 L1503.38,617.126 C1478.95,642.538 1477.11,681.933 1499.93,707.719 C1525.39,734.765 1567.38,735.244 1593.09,708.495 L1910.59,378.144 L1905.57,125.037 L2063.09,525.994 L2209.97,523.081 L2351.46,116.192 L2356.48,369.3 L2686.83,686.8 C2713.58,712.508 2755.52,710.364 2779.89,682.33 C2804.29,655.607 2799.57,616.342 2774.16,591.919 Z " fill="#fbe2d6" fill-opacity="1.00" />				<path d="M2285.15,463.935 L2317.08,273.945 C2361.33,252.461 2392.07,207.275 2391.92,155.053 C2391.73,82.2569 2332.22,23.0738 2259.43,23.2714 C2186.63,23.469 2127.45,82.9744 2127.64,155.77 C2127.45,82.9744 2067.94,23.7912 1995.15,23.9888 C1922.35,24.1864 1863.17,83.6918 1863.36,156.487 C1863.51,208.71 1894.49,253.728 1938.86,274.972 L1971.81,464.785 L1868.44,567.93 L2130.22,814.884 L2389.88,566.514 L2285.15,463.935 Z " fill="#f3804b" fill-opacity="1.00" />			</g>			<g>				<path d="M838.471,640.238 L14.9974,652.167 L1.74876,-174.912 C1.74876,-406.477 189.206,-593.934 420.77,-593.934 C652.335,-593.934 839.792,-406.477 839.792,-174.912 L838.471,642.895 L838.471,640.238 Z " fill="#5f4430" fill-opacity="1.00" />				<path d="M778.462,797.094 L778.462,731.931 L771.672,389.646 C770.267,318.828 711.419,262.27 640.602,263.674 L485.852,266.744 L482.938,119.863 L346.549,122.568 L349.462,269.449 L196.024,272.493 C125.206,273.898 68.6477,332.746 70.0525,403.563 L76.8421,745.849 L70.0525,883.994 C45.6294,909.406 47.2378,919.158 70.0525,944.944 C95.5161,971.99 51.1336,968.78 76.8421,942.031 L205.118,797.094 L200.097,543.987 L357.614,944.944 L504.495,942.031 L645.987,535.142 L651.007,788.25 L819.271,955.076 C846.02,980.785 754.091,912.029 778.462,883.994 C802.859,857.271 803.873,821.518 778.462,797.094 Z " fill="#fbe2d6" fill-opacity="1.00" />				<defs>					<filter id="X7uAO1FB" x="-32.39%" y="-32.39%" width="213.36%" height="213.36%" filterUnits="objectBoundingBox">						<feOffset dx="52.50" dy="52.50" in="SourceAlpha" result="shadowOffsetOuter1" />						<feGaussianBlur stdDeviation="131.24" in="shadowOffsetOuter1" result="shadowBlurOuter1" />						<feFlood flood-color="#000000" flood-opacity="0.09" />						<feComposite in2="shadowBlurOuter1" operator="in" />						<feMerge>							<feMergeNode />							<feMergeNode in="SourceGraphic" />						</feMerge>					</filter>				</defs>				<path d="M409.369,168.95 C230.229,168.95 85.2106,23.9316 85.2106,-155.209 C85.2106,-334.349 230.229,-479.367 409.369,-479.367 C588.509,-479.367 733.527,-334.349 733.527,-155.209 C733.527,23.9316 588.509,168.95 409.369,168.95 Z " fill="#fbe2d6" fill-opacity="1.00" filter="url(#X7uAO1FB)" />				<path d="M198.24,-438.473 C89.3717,-375.618 14.7162,-278.945 -19.7741,-166.58 C92.6373,-142.485 216.479,-156.959 324.699,-219.44 C432.92,-281.921 507.849,-379.616 542.713,-491.333 C430.302,-515.428 305.813,-500.58 198.24,-438.473 Z " fill="#5f4430" fill-opacity="1.00" />				<path d="M700.838,-430.874 C776.638,-374.347 823.907,-295.566 839.792,-208.594 C753.7,-200.479 662.46,-222.18 587.111,-278.37 C511.762,-334.561 464.378,-414.129 448.157,-500.65 C534.249,-508.765 625.94,-486.728 700.838,-430.874 Z " fill="#5f4430" fill-opacity="1.00" />				<path d="M447.408,4.4936 C437.602,4.4936 434.878,18.4765 425.072,18.4765 C413.813,18.4765 411.089,5.94636 401.283,5.94636 C374.588,5.94636 358.063,24.1059 332.821,29.7354 C374.588,47.8949 384.576,74.2263 423.619,74.2263 C462.48,74.2263 468.11,47.7133 514.417,32.4593 C478.279,29.5538 474.102,4.4936 447.408,4.4936 Z " fill="#e9b7b7" fill-opacity="1.00" />				<path d="M283.881,734.151 L539.793,734.151 L539.793,435.635 L283.881,435.635 L283.881,734.151 Z " fill="#a63131" fill-opacity="1.00" />				<path d="M578.277,876.299 L610.203,686.31 C654.455,664.825 685.192,619.64 685.05,567.417 C684.852,494.621 625.347,435.438 552.552,435.636 C479.756,435.834 420.573,495.339 420.77,568.134 C420.573,495.339 361.067,436.156 288.272,436.353 C215.476,436.551 156.293,496.056 156.491,568.852 C156.633,621.075 187.614,666.093 231.982,687.336 L264.939,877.15 L161.564,980.295 L420.77,978.879 L683.002,978.879 L578.277,876.299 Z " fill="#a63131" fill-opacity="1.00" />				<path d="M619.486,-153.483 C583.563,-128.179 556.162,-196.878 488.381,-136.963 C517.093,-182.588 548.034,-176.295 574.91,-166.331 C578.975,-166.593 586.185,-170.133 588.021,-171.575 C587.365,-167.249 583.039,-165.282 581.466,-164.364 C585.268,-164.627 593.265,-168.691 594.576,-170.002 C593.921,-167.773 592.741,-165.938 590.512,-164.364 C588.939,-163.053 586.448,-162.136 584.874,-161.611 C588.939,-160.3 600.738,-165.938 602.049,-167.249 C601.394,-165.02 600.214,-163.447 598.64,-162.004 C597.067,-160.431 592.741,-157.678 592.085,-157.94 C597.723,-156.629 612.406,-160.693 613.586,-162.922 C612.669,-160.693 610.833,-158.858 608.604,-157.285 C606.376,-155.711 604.278,-154.794 601.131,-154.138 C607.293,-152.303 612.931,-151.647 619.486,-153.483 Z " fill="#4d4d4d" fill-opacity="1.00" />				<path d="M229.724,-153.483 C265.647,-128.179 293.048,-196.878 360.829,-136.963 C332.117,-182.588 301.177,-176.295 274.3,-166.331 C270.236,-166.593 263.025,-170.133 261.19,-171.575 C261.845,-167.249 266.172,-165.282 267.745,-164.364 C263.943,-164.627 255.945,-168.691 254.634,-170.002 C255.29,-167.773 256.47,-165.938 258.699,-164.364 C260.272,-163.053 262.763,-162.136 264.336,-161.611 C260.272,-160.3 248.472,-165.938 247.161,-167.249 C247.817,-165.02 248.997,-163.447 250.57,-162.004 C252.143,-160.431 256.47,-157.678 257.125,-157.94 C251.488,-156.629 236.804,-160.693 235.624,-162.922 C236.542,-160.693 238.377,-158.858 240.606,-157.285 C242.835,-155.711 244.933,-154.794 248.079,-154.138 C241.917,-152.303 236.28,-151.647 229.724,-153.483 Z " fill="#4d4d4d" fill-opacity="1.00" />				<path d="M901.22,1340.66 L-53.9825,1340.66 C-137.925,1340.66 -155.947,1291.63 -155.947,1238.6 L-204.499,630.778 C-204.499,576.816 -136.477,534.018 -53.9825,534.018 L901.22,534.018 C985.162,534.018 1051.74,577.746 1051.74,630.778 L1007.69,1198.46 C1006.24,1250.56 983.715,1340.66 901.22,1340.66 Z " fill="#bebebe" fill-opacity="1.00" />				<path d="M541.93,779.787 C496.733,779.787 453.61,808.813 438.268,849.033 C422.926,809.227 379.803,779.787 334.606,779.787 C276.141,779.787 230.944,824.155 230.944,883.449 C230.944,963.891 311.386,1033.14 438.268,1148.41 C565.15,1033.14 645.592,964.305 645.592,883.449 C645.592,824.155 600.395,779.787 541.93,779.787 Z " fill="#ffffff" fill-opacity="1.00" />			</g>		</g>	</svg>