<?xml version="1.0" encoding="utf-8" ?>	<!-- Generator: Assembly 1.8 - http://assemblyapp.co -->	<svg version="1.1" xmlns="http://www.w3.org/2000/svg" xmlns:xlink="http://www.w3.org/1999/xlink" width="2048.00" height="1151.00" viewBox="0 0 2048.0 1150.99996288365">		<g id="document" transform="matrix(1,0,0,1,1024.0,575.499981441827)">			<path d="M-1025.99,-586.255 L-1025.99,586.255 L1024,586.255 L1024,-586.255 L-1025.99,-586.255 Z " fill="#86cdd1" fill-opacity="1.00" />			<path d="M429.389,360.685 C402.098,360.685 380.005,354.079 380.005,326.787 C380.005,299.496 402.098,292.4 429.389,292.4 C456.68,292.4 478.773,299.496 478.773,326.787 C478.773,354.079 456.68,360.685 429.389,360.685 Z " fill="#fcfffd" fill-opacity="1.00" />			<path d="M-316.88,371.312 L-316.88,308.391 L310.883,308.391 L310.883,371.312 L-316.88,371.312 Z " fill="#fcfffd" fill-opacity="1.00" stroke-width="29.42" stroke="#fcfffd" stroke-linecap="round" stroke-linejoin="round" />			<path d="M-426.06,-419.867 L423.418,-419.867 L423.418,176.435 L-426.06,176.435 L-426.06,-419.867 Z " fill="#153557" fill-opacity="1.00" stroke-width="50.61" stroke="#153557" stroke-linecap="round" stroke-linejoin="round" />			<path d="M-426.06,129.331 L-426.06,176.435 L423.418,176.435 L423.418,129.331 L-426.06,129.331 L-426.06,129.331 Z " fill="#fcfffd" fill-opacity="1.00" stroke-width="50.61" stroke="#fcfffd" stroke-linecap="round" stroke-linejoin="round" />			<path d="M-451.365,84.5978 L448.804,84.5978 L448.804,152.883 L-451.365,152.883 L-451.365,84.5978 Z " fill="#fcfffd" fill-opacity="1.00" />			<path d="M-3.27543,167.456 C-16.2909,167.456 -26.8273,156.92 -26.8273,143.904 C-26.8273,130.889 -16.2909,120.353 -3.27543,120.353 C9.74006,120.353 20.2764,130.889 20.2764,143.904 C20.2764,156.92 9.74006,167.456 -3.27543,167.456 Z " fill="#86cdd1" fill-opacity="1.00" />			<path d="M-420.026,-414.368 L414.028,-414.368 L414.028,47.0394 L-420.026,47.0394 L-420.026,-414.368 Z " fill="#2090a5" fill-opacity="1.00" />			<path d="M-87.4648,201.74 L80.9139,201.74 L80.9139,270.025 L-87.4648,270.025 L-87.4648,201.74 Z " fill="#e0e1e3" fill-opacity="1.00" />			<path d="M-731.58,371.312 L-731.58,324.208 L725.029,324.208 L725.029,371.312 L-731.58,371.312 Z " fill="#e0e1e3" fill-opacity="1.00" />			<path d="M124.044,439.597 L559.121,439.597 L625.217,589.815 L673.349,589.815 L603.387,371.667 L603.387,371.312 L603.273,371.312 L603.273,371.312 L124.399,371.312 L124.399,371.312 L-609.824,371.312 L-609.824,371.312 L-609.824,371.312 L-609.938,371.312 L-609.938,371.667 L-609.938,371.667 L-679.9,589.815 L-631.768,589.815 L-565.671,439.597 L124.044,439.597 L124.044,439.597 Z " fill="#153557" fill-opacity="1.00" />			<path d="M198.395,586.255 L123.334,309.578 L-52.7173,309.578 L-125.975,309.578 L-201.036,586.255 L198.395,586.255 Z " fill="#dc5253" fill-opacity="1.00" />			<path d="M-269.431,586.255 L266.789,586.255 C266.778,580.377 265.998,574.373 264.366,568.357 L189.305,291.68 C181.226,261.898 154.193,241.222 123.334,241.222 L-52.7173,241.222 L-125.975,241.222 C-156.834,241.222 -183.867,261.898 -191.947,291.68 L-267.008,568.357 C-268.64,574.373 -269.419,580.377 -269.431,586.255 L-269.431,586.255 Z " fill="#dc5253" fill-opacity="1.00" />			<path d="M-3.27543,586.255 L-3.27543,309.578 L-54.3952,309.578 L-127.653,309.578 L-202.714,586.255 L-3.27543,586.255 L-3.27543,586.255 Z " fill="#ee6366" fill-opacity="1.00" />			<path d="M65.0809,585.948 L65.0809,309.578 C65.0809,271.826 34.4767,241.222 -3.27544,241.222 L-54.3952,241.222 L-127.653,241.222 C-158.512,241.222 -185.545,261.898 -193.625,291.68 L-268.686,568.357 C-270.289,574.269 -271.069,580.168 -271.107,585.948 L65.0809,585.948 L65.0809,585.948 Z " fill="#ee6366" fill-opacity="1.00" />			<path d="M-143.25,-395.874 L-387.328,27.4988 L-59.0943,27.4988 L184.983,-395.874 L-143.25,-395.874 Z M246.288,-397.426 L2.21005,25.9473 L129.922,25.9473 L373.999,-397.426 L246.288,-397.426 Z " fill="#86cdd1" fill-opacity="0.37" />			<path d="M-883.779,496.985 C-969.435,395.137 -957.468,228.669 -857.927,142.665 " fill="none" stroke-width="12.58" stroke="#198367" stroke-linecap="square" stroke-linejoin="miter" />			<path d="M-946.55,425.485 C-967.678,359.238 -928.785,281.185 -863.584,259.43 " fill="none" stroke-width="8.23" stroke="#198367" stroke-linecap="square" stroke-linejoin="miter" />			<path d="M-939.713,381.156 C-986.357,289.368 -1000.6,181.678 -969.49,82.6789 " fill="none" stroke-width="12.58" stroke="#198367" stroke-linecap="square" stroke-linejoin="miter" />			<path d="M-1026.69,324.222 L-1026.69,587.476 L-829.273,587.476 L-829.273,587.476 C-805.874,515.501 -793.192,430.625 -793.192,341.865 C-793.192,332.113 -801.097,324.208 -810.849,324.208 L-1025.99,324.208 C-1026.22,324.208 -1026.46,324.213 -1026.69,324.222 L-1026.69,324.222 Z M-811.02,359.523 C-811.019,359.467 -811.018,359.411 -811.017,359.355 L-810.849,359.523 L-811.02,359.523 Z " fill="#153557" fill-opacity="1.00" />			<path d="M664.785,315.644 L541.107,315.644 L541.107,74.0139 L664.785,74.0139 L664.785,315.644 Z " fill="#153557" fill-opacity="1.00" stroke-width="15.76" stroke="#153557" stroke-linecap="round" stroke-linejoin="round" />			<path d="M544.313,89.5637 L661.579,89.5637 L661.579,281.664 L544.313,281.664 L544.313,89.5637 Z " fill="#2090a5" fill-opacity="1.00" />			<path d="M602.946,312.675 C597.542,312.675 593.168,308.301 593.168,302.897 C593.168,297.493 597.542,293.119 602.946,293.119 C608.35,293.119 612.724,297.493 612.724,302.897 C612.724,308.301 608.35,312.675 602.946,312.675 Z " fill="#2090a5" fill-opacity="1.00" />			<path d="M584.272,77.7622 L621.62,77.7622 " fill="none" stroke-width="2.93" stroke="#2090a5" stroke-linecap="round" stroke-linejoin="round" />			<path d="M606.835,98.9529 L554.47,220.115 L554.47,272.274 L598.944,272.274 L651.308,151.794 L651.308,98.9529 L606.835,98.9529 Z " fill="#86cdd1" fill-opacity="0.37" />			<path d="M-642.572,173.114 L-514.064,173.114 L-514.064,324.208 L-642.572,324.208 L-642.572,173.114 Z " fill="#fcfffd" fill-opacity="1.00" />			<path d="M-651.01,287.98 C-669.878,287.98 -676.915,272.706 -676.915,253.838 C-676.915,234.97 -669.878,219.695 -651.01,219.695 C-632.142,219.695 -616.868,234.97 -616.868,253.838 C-616.868,272.706 -632.142,287.98 -651.01,287.98 Z " fill="none" stroke-width="20.63" stroke="#fcfffd" stroke-linecap="square" stroke-linejoin="miter" />			<g>				<path d="M-621.339,84.5308 C-723.59,186.781 -807.434,191.937 -855.967,143.403 C-904.501,94.8692 -899.346,11.0254 -797.095,-91.2252 C-694.845,-193.476 -608.907,-200.725 -560.373,-152.191 C-511.84,-103.658 -519.089,-17.7198 -621.339,84.5308 Z " fill="#198367" fill-opacity="1.00" />				<path d="M-856.77,142.592 C-856.504,142.863 -856.237,143.134 -855.968,143.403 C-807.434,191.937 -723.59,186.781 -621.339,84.5308 C-519.089,-17.7198 -511.84,-103.658 -560.373,-152.191 C-560.643,-152.461 -560.913,-152.728 -561.184,-152.994 L-856.77,142.592 L-856.77,142.592 Z " fill="#3a995c" fill-opacity="1.00" />			</g>			<g>				<path d="M-809.277,285.885 C-852.546,300.498 -876.999,290.209 -883.935,269.671 C-890.871,249.134 -877.664,226.125 -834.396,211.512 C-791.127,196.899 -765.788,206.889 -758.852,227.426 C-751.915,247.964 -766.009,271.272 -809.277,285.885 Z " fill="#198367" fill-opacity="1.00" />				<path d="M-884.049,269.329 C-884.012,269.443 -883.974,269.557 -883.935,269.671 C-876.999,290.209 -852.546,300.498 -809.277,285.885 C-766.009,271.272 -751.915,247.964 -758.852,227.426 C-758.89,227.312 -758.929,227.199 -758.969,227.085 L-884.049,269.329 L-884.049,269.329 Z " fill="#3a995c" fill-opacity="1.00" />			</g>			<path d="M-775.494,-84.9456 C-816.538,76.8568 -896.659,131.48 -973.459,111.999 C-993.034,107.033 -1010.5,97.733 -1024.99,83.9507 C-1024.97,-85.8515 -1024.96,-207.257 -1024.96,-239.416 C-980.75,-337.163 -916.438,-371.386 -854.807,-355.753 C-778.007,-336.271 -734.45,-246.748 -775.494,-84.9456 Z " fill="#198367" fill-opacity="1.00" />			<path d="M-974.734,111.669 C-974.31,111.781 -973.885,111.891 -973.459,111.999 C-896.659,131.48 -816.538,76.8568 -775.494,-84.9456 C-734.45,-246.748 -778.007,-336.271 -854.807,-355.753 C-855.233,-355.861 -855.659,-355.966 -856.085,-356.07 L-974.734,111.669 L-974.734,111.669 Z " fill="#3a995c" fill-opacity="1.00" />			<path d="M557.425,-428.297 L1044.49,-428.297 L1044.49,-26.6135 L557.425,-26.6135 L557.425,-428.297 Z " fill="#ffffff" fill-opacity="1.00" />			<path d="M582.308,-46.0378 L532.543,-46.0378 L532.543,-447.721 L582.308,-447.721 L582.308,-46.0378 Z " fill="#153557" fill-opacity="1.00" />			<path d="M532.543,-397.957 L532.543,-447.721 L1053.51,-447.721 L1053.51,-397.957 L532.543,-397.957 Z " fill="#153557" fill-opacity="1.00" />			<path d="M532.543,-7.43578 L532.543,-57.2005 L1059.08,-57.2005 L1059.08,-7.43578 L532.543,-7.43578 Z " fill="#153557" fill-opacity="1.00" />			<path d="M-539.777,244.79 C-539.777,236.819 -546.245,230.286 -554.281,230.286 C-561.075,230.286 -566.824,234.99 -568.392,241.458 C-569.895,235.055 -575.644,230.286 -582.504,230.286 C-590.474,230.286 -597.007,236.754 -597.007,244.79 C-597.007,248.775 -595.896,251.715 -593.283,254.328 C-593.022,254.589 -592.303,255.308 -591.911,255.7 L-568.327,277.39 L-544.742,255.635 C-544.416,255.373 -544.35,255.243 -544.089,255.047 L-544.024,254.981 C-541.476,252.368 -539.777,248.775 -539.777,244.79 Z " fill="#ee6366" fill-opacity="1.00" stroke-width="3.21" stroke="#ee6366" stroke-linecap="round" stroke-linejoin="round" />			<path d="M756.731,-105.409 C689.285,-105.409 634.685,-160.009 634.685,-227.455 C634.685,-294.902 689.285,-349.501 756.731,-349.501 C824.177,-349.501 878.777,-294.902 878.777,-227.455 C878.777,-160.009 824.177,-105.409 756.731,-105.409 Z " fill="#f8b818" fill-opacity="1.00" />			<path d="M923.93,-105.409 C856.484,-105.409 801.884,-160.009 801.884,-227.455 C801.884,-294.902 856.484,-349.501 923.93,-349.501 C965.096,-349.501 1001.48,-329.161 1023.58,-297.975 C1023.85,-207.425 1024,-180.735 1024,-157.536 C1001.94,-126.01 965.36,-105.409 923.93,-105.409 Z " fill="#2090a5" fill-opacity="0.88" />			<path d="M840.331,-316.404 C816.659,-294.149 801.884,-262.54 801.884,-227.455 C801.884,-192.37 816.659,-160.762 840.331,-138.506 C864.002,-160.762 878.777,-192.37 878.777,-227.455 C878.777,-262.54 864.002,-294.149 840.331,-316.404 L840.331,-316.404 Z " fill="#198367" fill-opacity="1.00" />			<path d="M-1.34453,586.255 L111.968,586.255 L111.968,241.196 L-1.34453,241.196 L-1.34453,586.255 L-1.34453,586.255 Z " fill="#dc5253" fill-opacity="1.00" />			<path d="M-1025.04,454.204 L-1024.91,483.449 L-967.029,437.001 L-981.335,437.015 L-919.471,486.456 L-912.312,492.177 L-905.165,486.442 L-843.549,437.001 L-857.873,437.001 L-796.257,486.442 L-787.332,493.604 L-773.009,475.753 L-781.934,468.592 L-843.549,419.15 L-850.711,413.404 L-857.873,419.15 L-919.488,468.592 L-905.183,468.578 L-967.047,419.136 L-974.205,413.415 L-981.352,419.15 L-1025.04,454.204 Z " fill="#86cdd1" fill-opacity="1.00" />		</g>	</svg>